# xmcd
#
# Track frame offsets:
#	150
#	13522
#	26537
#	47675
#	59490
#	77325
#	88857
#	100977
#	113717
#	126160
#	139322
#	167202
#	186790
#	199702
#	212145
#	225232
#	245302
#	263105
#	274487
#	288435
#	300055
#
# Disc length: 4161 seconds
# Revision: 1
# Processed by: cddbd v1.5.2PL0 Copyright (c) Steve Scherf et al.
# Submitted via: dBpowerAMP V12.0
#
DISCID=1f103f15
DTITLE=Various Artist - A Little Blues In Your Soul - Disc 2
DYEAR=1900
DGENRE=Blues
TTITLE0=Ike and Tina Turner - Nutbush City Limits
TTITLE1=Booker T and The MGS - Green Onions
TTITLE2=Gladys Knight - Midnight Train to Georgia
TTITLE3=Wilson Pickett - In the Mdinight Hour
TTITLE4=Muddy Waters - Mannish Boy
TTITLE5=Emma Franklin - (Take a Little) Piece of My Heart
TTITLE6=The Drifters - Under the Boardwalk
TTITLE7=Bob and Earl - Harlem Shuffle
TTITLE8=Smokey Robinson - Going to a Go-Go
TTITLE9=Jackie Wilson - (Your Love Keeps Lifting Me) Higher and Higher
TTITLE10=Jimmy Smith - Got My Mojo Workin'
TTITLE11=Little Milton - Stormy Monday
TTITLE12=Fontella Bass - Rescue Me
TTITLE13=Albert King - Born Under a Bad Sign
TTITLE14=Carla Thomas - B-A-B-Y
TTITLE15=The Staple Singers - I'll Take You There
TTITLE16=Nina Simone - Blues for Mama
TTITLE17=Rufus Thomas - Walkin' the Dog
TTITLE18=Howlin Wolf - Smokestack Lightnin'
TTITLE19=Etta James - I'd Rather Go Blind
TTITLE20=Otis Redding - (Sittin' On) the Dock of the Bay
EXTD=
EXTT0=
EXTT1=
EXTT2=
EXTT3=
EXTT4=
EXTT5=
EXTT6=
EXTT7=
EXTT8=
EXTT9=
EXTT10=
EXTT11=
EXTT12=
EXTT13=
EXTT14=
EXTT15=
EXTT16=
EXTT17=
EXTT18=
EXTT19=
EXTT20=
PLAYORDER=
